# xmcd CD database file
#
# Track frame offsets:
#	150
#	17418
#	37875
#	56035
#	73145
#	85070
#	96833
#	115330
#	130648
#	150470
#	166150
#	183773
#	198253
#	211283
#	223225
#	241513
#	256303
#	279070
#
# Disc length: 4440 seconds
#
# Revision: 0
# Processed by: cddbd v1.5PL3 Copyright (c) Steve Scherf et al.
# Submitted via: CDex 1.51
#
DISCID=e5115612
DTITLE=variuos - Absolute Country CD1
DYEAR=1900
DGENRE=Country
TTITLE0=Kenny Rogers and Sheena Easton   - We've got tonight
TTITLE1=Ilse de lange - I stil l cry
TTITLE2=Trisha Yearwood /How do i live
TTITLE3=Clint Black - Desperado
TTITLE4=Charlie Rich - The most beautiful girl
TTITLE5=Johnny Cash - Ring of fire
TTITLE6=Sherryl Crow - My favorite mistake
TTITLE7=BIlly Ray Cyrus - Auchy braeky heart
TTITLE8=Brooks and Dunn - When she's gone, she's gone
TTITLE9=Dirt Band  feat. Linda Ronstadt - An Amerikan dream
TTITLE10=Amerika - Horse with no name
TTITLE11=DR.Hook -  A little bit more
TTITLE12=Merle Haggard - I'm a lonesome fugitive
TTITLE13=Tammy Wynette - Stand by your man
TTITLE14=Don Williams - I believe in you
TTITLE15=Olivia Newton John - Take me home country Roads
TTITLE16=Don Gibson -  Oh lonesome me
TTITLE17=?
EXTD=
EXTT0=
EXTT1=
EXTT2=
EXTT3=
EXTT4=
EXTT5=
EXTT6=
EXTT7=
EXTT8=
EXTT9=
EXTT10=
EXTT11=
EXTT12=
EXTT13=
EXTT14=
EXTT15=
EXTT16=
EXTT17=
PLAYORDER=
